<?xml version="1.0" ?><!DOCTYPE svg  PUBLIC '-//W3C//DTD SVG 1.1//EN'  'http://www.w3.org/Graphics/SVG/1.1/DTD/svg11.dtd'><svg enable-background="new 0 0 512 512" id="Layer_1" version="1.1" viewBox="0 0 512 512" xml:space="preserve" xmlns="http://www.w3.org/2000/svg" xmlns:xlink="http://www.w3.org/1999/xlink"><g><g><path d="M188.5,321.8c-1.7,0-3.5-0.5-5-1.5l-67.9-44.9c-2.5-1.7-4-4.5-4-7.5c0-3,1.5-5.8,4.1-7.5l39.1-25.7    c4.2-2.7,9.7-1.6,12.5,2.6c2.7,4.2,1.6,9.7-2.6,12.5l-27.7,18.2l51.5,34.1l32.6-21.6c4.1-2.8,9.7-1.6,12.5,2.5s1.6,9.7-2.5,12.5    l-37.6,24.9C191.9,321.3,190.2,321.8,188.5,321.8z" fill="#005EF7"/><path d="M251.8,388.2c-1.7,0-3.5-0.5-5-1.5l-57.6-38.4c-4.1-2.8-5.3-8.3-2.5-12.5c2.8-4.1,8.3-5.3,12.5-2.5    l52.6,35l52.6-35c4.1-2.8,9.7-1.6,12.5,2.5c2.8,4.1,1.6,9.7-2.5,12.5l-57.6,38.4C255.3,387.7,253.5,388.2,251.8,388.2z" fill="#005EF7"/><path d="M256,276.9c-1.7,0-3.5-0.5-5-1.5l-67.5-45.3c-2.5-1.7-4-4.5-4-7.5s1.5-5.8,4-7.5l67.5-44.9    c3-2,6.9-2,9.9,0l67.9,44.9c2.5,1.7,4,4.5,4,7.5s-1.5,5.8-4,7.5L261,275.4C259.5,276.4,257.7,276.9,256,276.9z M204.7,222.7    l51.3,34.4l51.6-34.4L256,188.5L204.7,222.7z" fill="#005EF7"/><path d="M159.7,212.4c-1.7,0-3.4-0.5-4.9-1.5l-39.1-25.7c-2.5-1.7-4.1-4.5-4.1-7.5c0-3,1.5-5.9,4-7.5l67.9-44.9    c3-2,6.9-2,9.9,0l37.6,24.9c4.1,2.7,5.3,8.3,2.5,12.5c-2.7,4.1-8.3,5.3-12.5,2.5l-32.6-21.6l-51.5,34.1l27.7,18.2    c4.2,2.7,5.3,8.3,2.6,12.5C165.5,211,162.6,212.4,159.7,212.4z" fill="#005EF7"/><path d="M352.7,212.4c-2.9,0-5.8-1.4-7.5-4c-2.7-4.1-1.6-9.7,2.5-12.5l27.5-18.2l-51.3-34.1l-32.6,21.6    c-4.1,2.7-9.7,1.6-12.5-2.5c-2.7-4.1-1.6-9.7,2.5-12.5l37.6-24.9c3-2,6.9-2,10,0l67.5,44.9c2.5,1.7,4,4.5,4,7.5c0,3-1.5,5.8-4,7.5    l-38.8,25.7C356.1,212,354.4,212.4,352.7,212.4z" fill="#005EF7"/><path d="M323.9,321.8c-1.7,0-3.5-0.5-5-1.5l-37.6-24.9c-4.1-2.7-5.3-8.3-2.5-12.5c2.7-4.1,8.3-5.3,12.5-2.5    l32.6,21.6l51.3-34.1l-27.5-18.2c-4.1-2.7-5.3-8.3-2.5-12.5s8.3-5.3,12.5-2.5l38.8,25.7c2.5,1.7,4,4.5,4,7.5c0,3-1.5,5.8-4,7.5    l-67.5,44.9C327.4,321.3,325.6,321.8,323.9,321.8z" fill="#005EF7"/></g></g></svg>