<?xml version="1.0" ?><!DOCTYPE svg  PUBLIC '-//W3C//DTD SVG 1.1//EN'  'http://www.w3.org/Graphics/SVG/1.1/DTD/svg11.dtd'><svg enable-background="new 0 0 512 512" id="Layer_1" version="1.1" viewBox="0 0 512 512" xml:space="preserve" xmlns="http://www.w3.org/2000/svg" xmlns:xlink="http://www.w3.org/1999/xlink"><g><g><path d="M255.1,394.1c-0.3,0-0.7,0-1,0c-10.4,0.3-18.5-4.3-33.1-12.7c-1.5-0.9-3.1-1.8-4.7-2.7    c-14.7-8.2-16.6-8.8-29.6-9.2c-24.1-0.5-30.6-4.8-36.3-14.1c-1.3-2.2-2.2-3.7-4.9-5.4c-0.1,0-0.1-0.1-0.2-0.1    c-6.1-4.3-15.3-7.8-27.3-10.4c-0.5-0.1-1-0.2-1.4-0.4c-1.2-0.5-2.3-1.2-3.2-2.1c-0.9-0.9-1.6-2-2.1-3.3c-0.4-1-0.5-2-0.5-3.1    c0-1.1,0.2-2.1,0.6-3.1c0.5-1.2,1.2-2.3,2-3.2c0.9-0.9,2.1-1.7,3.4-2.1c0.4-0.2,0.9-0.3,1.4-0.4c20.8-4.4,35.3-18.1,44.2-41.9    c1.8-4.7,6.9-7,11.6-5.2c4.7,1.8,7,6.9,5.2,11.6c-7.5,19.8-18.5,34.3-33.1,43.5c3.5,1.6,6.6,3.4,9.4,5.3c6,4,8.6,8.3,10.3,11.1    c1.4,2.2,1.5,2.5,2.8,3.1c3.1,1.3,9.3,2.1,18.5,2.3c16.7,0.4,21.8,2.4,38,11.5c1.7,1,3.3,1.9,4.8,2.8c13,7.5,18.5,10.5,23.7,10.3    c0.2,0,0.3,0,0.5,0c0.2,0,0.3,0,0.5,0c5.1,0.2,10.6-2.8,23.7-10.3c1.5-0.9,3.1-1.8,4.8-2.7c16.2-9.1,21.3-11.1,38-11.5    c9.4-0.2,15.8-1,18.9-2.4c1.2-0.5,1.4-0.8,2.7-3c1.7-2.8,4.1-7.1,10-11.1c3.4-2.3,7.2-4.5,11.5-6.3c-13.9-9.2-24.5-23.4-31.7-42.5    c-1.8-4.7,0.6-9.8,5.2-11.6c4.7-1.8,9.8,0.6,11.6,5.2c9,23.9,23.7,37.6,44.8,41.9c4.9,1,8,5.7,7,10.6c-1,4.8-5.7,8-10.5,7    c-12.2,2.6-21.5,6.1-27.6,10.4c0,0-0.1,0.1-0.1,0.1c-2.5,1.7-3.4,3.1-4.6,5.3c-5.5,9.4-12.1,13.7-36.7,14.3    c-12.9,0.3-14.8,0.9-29.6,9.2c-1.6,0.9-3.2,1.8-4.7,2.7C273.1,389.5,265,394.1,255.1,394.1z M178.1,254.8c-0.6,0-1.3-0.1-1.9-0.2    l-30.3-6.5c-4.9-1-8-5.8-6.9-10.7c1-4.9,5.8-7.9,10.7-6.9l21.8,4.7c1-10.8,1.3-22.1,1-33.7c-0.6-21.6,7.5-42.3,22.9-58.1    c15.8-16.3,37.9-25.6,60.5-25.6c22.3,0,44.2,9.2,60,25.3c15.5,15.8,23.9,36.5,23.5,58.3c-0.3,12.2-0.1,22.8,0.6,32.2l22.9-3.3    c4.9-0.7,9.5,2.7,10.2,7.6c0.7,4.9-2.7,9.5-7.6,10.2l-32.2,4.6c-2.4,0.3-4.8-0.3-6.7-1.8c-1.9-1.5-3.2-3.7-3.5-6.1    c-1.5-12.3-2-26.7-1.6-43.9c0.3-16.8-6.2-32.9-18.3-45.3c-12.4-12.7-29.6-19.9-47.1-19.9c-17.8,0-35.2,7.3-47.6,20.1    c-12,12.3-18.3,28.3-17.8,45.1c0.4,15.3-0.3,30-2,43.9c-0.3,2.2-1.3,4-2.7,5.4C184.2,253.1,181.3,254.8,178.1,254.8z" fill="#FFFC00"/></g></g></svg>