<?xml version="1.0" ?><!DOCTYPE svg  PUBLIC '-//W3C//DTD SVG 1.1//EN'  'http://www.w3.org/Graphics/SVG/1.1/DTD/svg11.dtd'><svg enable-background="new 0 0 512 512" id="Layer_1" version="1.1" viewBox="0 0 512 512" xml:space="preserve" xmlns="http://www.w3.org/2000/svg" xmlns:xlink="http://www.w3.org/1999/xlink"><g><g><path d="M258.5,399.1c-18.4,0-39.3-4.2-60.8-12.4c-4.6-1.8-7-7-5.2-11.6c1.8-4.6,7-7,11.6-5.2    c22.3,8.5,44.4,12.4,62.1,11c64.4-5,114.9-59.7,114.9-124.6c0-69.1-56-125.3-124.9-125.3c-69.1,0-125.3,56.2-125.3,125.3    c0,14.5,2.7,29.1,7.9,43.3c1.7,4.7-0.7,9.8-5.3,11.6c-4.7,1.7-9.8-0.7-11.6-5.3c-6-16.2-9-32.9-9-49.5    c0-79,64.3-143.3,143.3-143.3c78.8,0,142.9,64.3,142.9,143.3c0,36.2-13.5,70.7-38.1,97.2c-24.5,26.4-57.6,42.5-93.4,45.3    C264.7,399,261.6,399.1,258.5,399.1z" fill="#E44A85"/><path d="M286.9,356.5c-4.7,0-8.7-3.6-9-8.4c-4.5-68-31.2-124.6-79.5-168.1c-3.7-3.3-4-9-0.7-12.7    c3.3-3.7,9-4,12.7-0.7c51.9,46.7,80.6,107.4,85.4,180.3c0.3,5-3.4,9.2-8.4,9.6C287.3,356.5,287.1,356.5,286.9,356.5z" fill="#E44A85"/><path d="M191,335c-2.4,0-4.8-1-6.6-2.9c-3.4-3.6-3.2-9.3,0.4-12.7c36.7-34.2,84.5-53.1,134.7-53.1    c14.8,0,28.8,1.4,41.4,4c4.9,1,8,5.8,6.9,10.7c-1,4.9-5.8,8-10.7,6.9c-11.4-2.4-24.1-3.6-37.7-3.6c-45.6,0-89,17.1-122.4,48.2    C195.4,334.3,193.2,335,191,335z" fill="#E44A85"/><path d="M162.2,252.6c-5,0-9-4-9-9s4-9,9-9c58.8,0,114.2-23.2,155.9-65.2c3.5-3.5,9.2-3.6,12.7-0.1    c3.5,3.5,3.6,9.2,0.1,12.7c-21.9,22.1-47.4,39.4-75.8,51.6C225.6,246.2,194.3,252.6,162.2,252.6z" fill="#E44A85"/></g></g></svg>