<?xml version="1.0" ?><!DOCTYPE svg  PUBLIC '-//W3C//DTD SVG 1.1//EN'  'http://www.w3.org/Graphics/SVG/1.1/DTD/svg11.dtd'><svg enable-background="new 0 0 512 512" id="Layer_1" version="1.1" viewBox="0 0 512 512" xml:space="preserve" xmlns="http://www.w3.org/2000/svg" xmlns:xlink="http://www.w3.org/1999/xlink"><g><g><path d="M332.4,335.2c-29.5,0-53.5-22.8-53.5-50.8v-10.7c0-28,24-50.8,53.5-50.8s53.5,22.8,53.5,50.8v5.4    c0,5-4,9-9,9s-9-4-9-9v-5.4c0-18.1-15.9-32.8-35.5-32.8s-35.5,14.7-35.5,32.8v10.7c0,18.1,15.9,32.8,35.5,32.8    c11,0,21-4.5,28.2-12.7c3.3-3.7,9-4.1,12.7-0.8c3.7,3.3,4.1,9,0.8,12.7C363.4,328.5,348.6,335.2,332.4,335.2z" fill="#0059F8"/><path d="M212.6,265h-46.8c-5,0-9-4-9-9s4-9,9-9h46.8c14.5,0,26.3-11.8,26.3-26.3c0-14.3-11.8-25.9-26.3-25.9h-46.8    c-5,0-9-4-9-9s4-9,9-9h46.8c24.4,0,44.3,19.7,44.3,43.9C256.9,245.1,237.1,265,212.6,265z" fill="#0059F8"/><path d="M216.9,335.2h-51c-5,0-9-4-9-9s4-9,9-9h51c14.3,0,25.9-11.8,25.9-26.3c0-14.3-11.6-25.9-25.9-25.9h-51    c-5,0-9-4-9-9s4-9,9-9h51c24.2,0,43.9,19.7,43.9,43.9C260.8,315.3,241.1,335.2,216.9,335.2z" fill="#0059F8"/><path d="M376.9,194.8h-89c-5,0-9-4-9-9s4-9,9-9h89c5,0,9,4,9,9S381.8,194.8,376.9,194.8z" fill="#0059F8"/><path d="M376.9,288h-57.9c-5,0-9-4-9-9s4-9,9-9h57.9c5,0,9,4,9,9S381.8,288,376.9,288z" fill="#0059F8"/><path d="M135.1,335.2c-5,0-9-4-9-9V185.8c0-5,4-9,9-9s9,4,9,9v140.4C144.1,331.2,140.1,335.2,135.1,335.2z" fill="#0059F8"/></g></g></svg>