<?xml version="1.0" ?><!DOCTYPE svg  PUBLIC '-//W3C//DTD SVG 1.1//EN'  'http://www.w3.org/Graphics/SVG/1.1/DTD/svg11.dtd'><svg enable-background="new 0 0 512 512" id="Layer_1" version="1.1" viewBox="0 0 512 512" xml:space="preserve" xmlns="http://www.w3.org/2000/svg" xmlns:xlink="http://www.w3.org/1999/xlink"><g><g><path d="M334.1,237.8c-1.3,0-2.5-0.3-3.8-0.8c-77.7-35.8-149.1-15.8-149.8-15.6c-4.8,1.4-9.8-1.4-11.1-6.1    c-1.4-4.8,1.3-9.8,6.1-11.1c3.2-0.9,78.4-22.2,162.4,16.6c4.5,2.1,6.5,7.4,4.4,11.9C340.7,235.9,337.5,237.8,334.1,237.8z" fill="#00B389"/><path d="M315.9,277.7c-1.5,0-3-0.4-4.3-1.1c-64-35.3-121.7-16.7-122.3-16.5c-4.7,1.6-9.8-1-11.4-5.7    c-1.6-4.7,0.9-9.8,5.6-11.4c2.6-0.9,65.5-21.5,136.8,17.8c4.4,2.4,5.9,7.9,3.5,12.2C322.1,276,319,277.7,315.9,277.7z" fill="#00B389"/><path d="M306.4,314.5c-1.6,0-3.1-0.4-4.6-1.3c-55.2-32.8-104.2-15.2-104.6-15.1c-4.7,1.7-9.8-0.6-11.6-5.3    c-1.7-4.7,0.6-9.8,5.3-11.6c2.3-0.9,57.6-20.7,120.1,16.5c4.3,2.5,5.7,8.1,3.1,12.3C312.5,312.9,309.5,314.5,306.4,314.5z" fill="#00B389"/></g></g><g><path d="M258.5,399.1c-18.4,0-39.3-4.2-60.8-12.4c-4.6-1.8-7-7-5.2-11.6c1.8-4.6,7-7,11.6-5.2   c22.3,8.5,44.4,12.4,62.1,11c64.4-5,114.9-59.7,114.9-124.6c0-69.1-56-125.3-124.9-125.3c-69.1,0-125.3,56.2-125.3,125.3   c0,14.5,2.7,29.1,7.9,43.3c1.7,4.7-0.7,9.8-5.3,11.6c-4.7,1.7-9.8-0.7-11.6-5.3c-6-16.2-9-32.9-9-49.5c0-79,64.3-143.3,143.3-143.3   c78.8,0,142.9,64.3,142.9,143.3c0,36.2-13.5,70.7-38.1,97.2c-24.5,26.4-57.6,42.5-93.4,45.3C264.7,399,261.6,399.1,258.5,399.1z" fill="#00B389"/></g></svg>