<?xml version="1.0" ?><!DOCTYPE svg  PUBLIC '-//W3C//DTD SVG 1.1//EN'  'http://www.w3.org/Graphics/SVG/1.1/DTD/svg11.dtd'><svg enable-background="new 0 0 512 512" id="Layer_1" version="1.1" viewBox="0 0 512 512" xml:space="preserve" xmlns="http://www.w3.org/2000/svg" xmlns:xlink="http://www.w3.org/1999/xlink"><g><g><path d="M336.5,399.5c-3.8,0-7.3-2.4-8.6-6.2c-1.5-4.7,1.1-9.8,5.8-11.3c10.9-3.5,20.7-9.4,29.1-17.4    c23.4-23.5,27.3-59.4,9.5-87.3c-1.1-1.7-1.6-3.8-1.4-5.8c3.7-34.5-8.4-68.5-33.1-93.2c-24.3-24.3-57.9-36.4-92.1-33.1    c-0.4,0-0.9,0.1-1.3,0c0,0,0,0,0,0c-0.6,0-1.3-0.1-1.9-0.3c0,0,0,0,0,0c0,0,0,0,0,0c-0.5-0.1-1.1-0.3-1.6-0.6c0,0,0,0,0,0l0,0    c-0.5-0.2-0.9-0.5-1.3-0.8c-28.1-19.7-66.2-16.4-90.5,7.9c-23.9,23.9-27.1,62.6-7.5,90.1c1.3,1.8,1.8,3.9,1.6,6.1    c-3.3,34.4,8.7,68.2,33.1,92.5c22.3,22.3,52.3,34.2,84.4,33.4c0.1,0,0.1,0,0.2,0c4.9,0,8.9,3.9,9,8.8c0.1,5-3.8,9.1-8.8,9.2    c-37,0.9-71.7-12.9-97.5-38.7c-27.4-27.4-41.3-65-38.6-103.7c-10.6-16.2-15.6-35.6-14.1-55.1c1.6-20.9,10.6-40.6,25.4-55.4    c29.7-29.7,75.8-34.4,110.8-11.7c38.5-2.8,75.9,11.2,103.3,38.6c27.9,27.9,41.8,65.9,38.6,104.8c9.5,16.1,13.6,35.1,11.7,53.8    c-2,20.1-11,39-25.4,53.3c0,0-0.1,0.1-0.1,0.1c-10.4,10-22.5,17.3-36.1,21.6C338.3,399.3,337.4,399.5,336.5,399.5z" fill="#0078D7"/><path d="M259.2,319.3c-18.9,0-36.5-7.9-47.2-21.5c-3.1-3.9-2.4-9.6,1.5-12.6c3.9-3.1,9.6-2.4,12.6,1.5    c9.9,12.6,26.3,15.7,38.4,14.4c11.6-1.3,21.2-6.5,24.6-13.4c0.5-1.3,0.7-3.8-0.6-6.7c-1-2.1-3.6-6-9.8-7.7    c-5.3-1.5-10.5-2.9-15.5-4.1c-15.8-4.1-29.5-7.6-39.5-14.9c0,0-0.1-0.1-0.1-0.1c-9.8-7.4-14.4-17.7-12.8-28.3    c1.9-11.9,11.4-22.2,24.8-26.9c13-4.6,39.3-9.3,69.3,10.6c4.1,2.7,5.3,8.3,2.5,12.5c-2.7,4.1-8.3,5.3-12.5,2.5    c-22.3-14.8-41.4-12.8-53.4-8.6c-7.1,2.5-12.1,7.4-13,12.7c-0.8,5,2.7,8.8,5.8,11.1c7.2,5.3,19.3,8.4,33.3,12    c5.1,1.3,10.4,2.7,16,4.3c9.7,2.7,17.2,8.9,21.2,17.5c3.3,7.2,3.6,15.3,0.7,21.8c0,0.1-0.1,0.1-0.1,0.2    c-6.2,12.8-20.7,21.6-38.9,23.6C264.1,319.2,261.6,319.3,259.2,319.3z" fill="#0078D7"/></g></g></svg>