<?xml version="1.0" ?><!DOCTYPE svg  PUBLIC '-//W3C//DTD SVG 1.1//EN'  'http://www.w3.org/Graphics/SVG/1.1/DTD/svg11.dtd'><svg enable-background="new 0 0 512 512" id="Layer_1" version="1.1" viewBox="0 0 512 512" xml:space="preserve" xmlns="http://www.w3.org/2000/svg" xmlns:xlink="http://www.w3.org/1999/xlink"><g><g><path d="M250.3,229.7c-0.3,0-0.6,0-0.9,0c-73.9-7.6-116.3-59-118.1-61.2c-3.1-3.9-2.5-9.5,1.3-12.7    c3.9-3.1,9.5-2.5,12.7,1.3c0.5,0.6,39.9,47.9,106,54.7c4.9,0.5,8.5,4.9,8,9.9C258.7,226.3,254.8,229.7,250.3,229.7z" fill="#1DA1F2"/><path d="M216.4,266c-19.3,0-35.7-5.2-47.6-10.7c-19.8-9.1-34.5-22.3-37.5-28.3c-2.2-4.4-0.4-9.9,4-12.1    c4.3-2.2,9.6-0.5,11.9,3.7c4.3,6.1,45.1,42.3,98.2,24.6c4.7-1.6,9.8,1,11.4,5.7c1.6,4.7-1,9.8-5.7,11.4    C238.9,264.4,227.2,266,216.4,266z" fill="#1DA1F2"/><path d="M206.8,297.3c-28.9,0-48.8-10.6-49.9-11.2c-4.4-2.4-6-7.8-3.6-12.2c2.4-4.4,7.8-6,12.2-3.6l0,0    c0.3,0.2,32,16.7,71.7,4.3c4.7-1.5,9.8,1.2,11.3,5.9c1.5,4.7-1.2,9.8-5.9,11.3C229.7,295.9,217.6,297.3,206.8,297.3z" fill="#1DA1F2"/><path d="M215.6,362.7c-25.6,0-54-5.1-84.5-15.3c-4.7-1.6-7.3-6.7-5.7-11.4c1.6-4.7,6.7-7.3,11.4-5.7    c63.3,21.2,115.7,19,151.3-6.6c31.9-22.9,48.9-63.3,49-116.9c0-2.9,1.4-5.6,3.8-7.3l31.8-22.6c4.1-2.9,9.7-1.9,12.5,2.1    c2.9,4.1,1.9,9.7-2.1,12.5l-28.1,20c-1.2,57.3-20.7,101.1-56.5,126.8C276,354.6,248,362.7,215.6,362.7z" fill="#1DA1F2"/><path d="M250.2,229.7c-4.4,0-8.2-3.2-8.9-7.7c-4.3-28.8,5.9-53.2,27.2-65.4c21.8-12.4,49.9-9,71.8,8.7    c3.9,3.1,4.5,8.8,1.3,12.7c-3.1,3.9-8.8,4.5-12.7,1.3c-16-13-36.3-15.8-51.6-7.1c-14.8,8.4-21.5,25.6-18.3,47.1    c0.7,4.9-2.7,9.5-7.6,10.2C251.1,229.7,250.7,229.7,250.2,229.7z" fill="#1DA1F2"/></g></g></svg>